<mxfile host="app.diagrams.net" modified="2021-06-28T08:54:12.387Z" agent="5.0 (Windows NT 10.0; Win64; x64) AppleWebKit/537.36 (KHTML, like Gecko) Chrome/91.0.4472.114 Safari/537.36 Edg/91.0.864.59" etag="vA8r2Id9WqbjJkDXG9Wz" version="14.7.3" type="github">
  <diagram name="Page-1" id="c7488fd3-1785-93aa-aadb-54a6760d102a">
    <mxGraphModel dx="1800" dy="965" grid="1" gridSize="10" guides="1" tooltips="1" connect="1" arrows="1" fold="1" page="1" pageScale="1" pageWidth="1100" pageHeight="850" background="#ffffff" math="0" shadow="0">
      <root>
        <mxCell id="0" />
        <mxCell id="1" parent="0" />
        <mxCell id="LNF0x5uRXGlsWWgb_Sv3-1" value="" style="ellipse;whiteSpace=wrap;html=1;aspect=fixed;" vertex="1" parent="1">
          <mxGeometry x="20" y="360" width="80" height="80" as="geometry" />
        </mxCell>
        <mxCell id="LNF0x5uRXGlsWWgb_Sv3-3" value="" style="rounded=1;whiteSpace=wrap;html=1;" vertex="1" parent="1">
          <mxGeometry x="140" y="360" width="80" height="80" as="geometry" />
        </mxCell>
        <mxCell id="LNF0x5uRXGlsWWgb_Sv3-4" value="" style="rounded=0;whiteSpace=wrap;html=1;fillColor=#d5e8d4;strokeColor=#82b366;strokeWidth=3;" vertex="1" parent="1">
          <mxGeometry x="270" y="320" width="80" height="160" as="geometry" />
        </mxCell>
        <mxCell id="LNF0x5uRXGlsWWgb_Sv3-5" value="" style="rhombus;whiteSpace=wrap;html=1;" vertex="1" parent="1">
          <mxGeometry x="400" y="347.5" width="120" height="105" as="geometry" />
        </mxCell>
        <mxCell id="LNF0x5uRXGlsWWgb_Sv3-7" value="" style="rounded=1;whiteSpace=wrap;html=1;" vertex="1" parent="1">
          <mxGeometry x="490" y="220" width="120" height="70" as="geometry" />
        </mxCell>
        <mxCell id="LNF0x5uRXGlsWWgb_Sv3-9" value="" style="rounded=1;whiteSpace=wrap;html=1;" vertex="1" parent="1">
          <mxGeometry x="890" y="365" width="120" height="70" as="geometry" />
        </mxCell>
        <mxCell id="LNF0x5uRXGlsWWgb_Sv3-10" value="" style="endArrow=classic;html=1;exitX=1;exitY=0.5;exitDx=0;exitDy=0;entryX=0;entryY=0.5;entryDx=0;entryDy=0;" edge="1" parent="1" source="LNF0x5uRXGlsWWgb_Sv3-1" target="LNF0x5uRXGlsWWgb_Sv3-3">
          <mxGeometry width="50" height="50" relative="1" as="geometry">
            <mxPoint x="220" y="340" as="sourcePoint" />
            <mxPoint x="270" y="290" as="targetPoint" />
          </mxGeometry>
        </mxCell>
        <mxCell id="LNF0x5uRXGlsWWgb_Sv3-13" value="" style="endArrow=classic;html=1;entryX=0;entryY=0.5;entryDx=0;entryDy=0;" edge="1" parent="1" target="LNF0x5uRXGlsWWgb_Sv3-4">
          <mxGeometry width="50" height="50" relative="1" as="geometry">
            <mxPoint x="220" y="400" as="sourcePoint" />
            <mxPoint x="270" y="290" as="targetPoint" />
          </mxGeometry>
        </mxCell>
        <mxCell id="LNF0x5uRXGlsWWgb_Sv3-15" value="" style="endArrow=classic;html=1;exitX=1;exitY=0.5;exitDx=0;exitDy=0;entryX=0;entryY=0.5;entryDx=0;entryDy=0;" edge="1" parent="1" source="LNF0x5uRXGlsWWgb_Sv3-4" target="LNF0x5uRXGlsWWgb_Sv3-5">
          <mxGeometry width="50" height="50" relative="1" as="geometry">
            <mxPoint x="220" y="340" as="sourcePoint" />
            <mxPoint x="270" y="290" as="targetPoint" />
          </mxGeometry>
        </mxCell>
        <mxCell id="LNF0x5uRXGlsWWgb_Sv3-16" value="" style="endArrow=classic;html=1;exitX=0.5;exitY=0;exitDx=0;exitDy=0;entryX=0;entryY=0.5;entryDx=0;entryDy=0;" edge="1" parent="1" source="LNF0x5uRXGlsWWgb_Sv3-5" target="LNF0x5uRXGlsWWgb_Sv3-7">
          <mxGeometry width="50" height="50" relative="1" as="geometry">
            <mxPoint x="220" y="340" as="sourcePoint" />
            <mxPoint x="270" y="290" as="targetPoint" />
            <Array as="points">
              <mxPoint x="460" y="255" />
            </Array>
          </mxGeometry>
        </mxCell>
        <mxCell id="LNF0x5uRXGlsWWgb_Sv3-17" value="" style="endArrow=classic;html=1;exitX=1;exitY=0.5;exitDx=0;exitDy=0;entryX=0;entryY=0.5;entryDx=0;entryDy=0;" edge="1" parent="1" source="LNF0x5uRXGlsWWgb_Sv3-5">
          <mxGeometry width="50" height="50" relative="1" as="geometry">
            <mxPoint x="610" y="340" as="sourcePoint" />
            <mxPoint x="640" y="400" as="targetPoint" />
          </mxGeometry>
        </mxCell>
        <mxCell id="LNF0x5uRXGlsWWgb_Sv3-18" value="" style="endArrow=classic;html=1;exitX=1;exitY=0.5;exitDx=0;exitDy=0;entryX=0;entryY=0.5;entryDx=0;entryDy=0;" edge="1" parent="1" source="LNF0x5uRXGlsWWgb_Sv3-7">
          <mxGeometry width="50" height="50" relative="1" as="geometry">
            <mxPoint x="610" y="340" as="sourcePoint" />
            <mxPoint x="640" y="400" as="targetPoint" />
            <Array as="points">
              <mxPoint x="630" y="255" />
              <mxPoint x="630" y="400" />
            </Array>
          </mxGeometry>
        </mxCell>
        <mxCell id="LNF0x5uRXGlsWWgb_Sv3-19" value="" style="rhombus;whiteSpace=wrap;html=1;" vertex="1" parent="1">
          <mxGeometry x="640" y="347.5" width="120" height="105" as="geometry" />
        </mxCell>
        <mxCell id="LNF0x5uRXGlsWWgb_Sv3-20" value="" style="rounded=1;whiteSpace=wrap;html=1;" vertex="1" parent="1">
          <mxGeometry x="730" y="220" width="120" height="70" as="geometry" />
        </mxCell>
        <mxCell id="LNF0x5uRXGlsWWgb_Sv3-21" value="" style="endArrow=classic;html=1;exitX=0.5;exitY=0;exitDx=0;exitDy=0;entryX=0;entryY=0.5;entryDx=0;entryDy=0;" edge="1" parent="1" source="LNF0x5uRXGlsWWgb_Sv3-19" target="LNF0x5uRXGlsWWgb_Sv3-20">
          <mxGeometry width="50" height="50" relative="1" as="geometry">
            <mxPoint x="460" y="340" as="sourcePoint" />
            <mxPoint x="510" y="290" as="targetPoint" />
            <Array as="points">
              <mxPoint x="700" y="255" />
            </Array>
          </mxGeometry>
        </mxCell>
        <mxCell id="LNF0x5uRXGlsWWgb_Sv3-22" value="" style="endArrow=classic;html=1;exitX=1;exitY=0.5;exitDx=0;exitDy=0;entryX=0;entryY=0.5;entryDx=0;entryDy=0;" edge="1" parent="1" source="LNF0x5uRXGlsWWgb_Sv3-19">
          <mxGeometry width="50" height="50" relative="1" as="geometry">
            <mxPoint x="850" y="340" as="sourcePoint" />
            <mxPoint x="890" y="400" as="targetPoint" />
          </mxGeometry>
        </mxCell>
        <mxCell id="LNF0x5uRXGlsWWgb_Sv3-23" value="" style="endArrow=classic;html=1;exitX=1;exitY=0.5;exitDx=0;exitDy=0;entryX=0;entryY=0.5;entryDx=0;entryDy=0;" edge="1" parent="1" source="LNF0x5uRXGlsWWgb_Sv3-20">
          <mxGeometry width="50" height="50" relative="1" as="geometry">
            <mxPoint x="850" y="340" as="sourcePoint" />
            <mxPoint x="890" y="400" as="targetPoint" />
            <Array as="points">
              <mxPoint x="870" y="255" />
              <mxPoint x="870" y="400" />
            </Array>
          </mxGeometry>
        </mxCell>
        <mxCell id="LNF0x5uRXGlsWWgb_Sv3-24" value="" style="endArrow=classic;html=1;exitX=1;exitY=0.5;exitDx=0;exitDy=0;" edge="1" parent="1" source="LNF0x5uRXGlsWWgb_Sv3-9" target="LNF0x5uRXGlsWWgb_Sv3-25">
          <mxGeometry width="50" height="50" relative="1" as="geometry">
            <mxPoint x="610" y="340" as="sourcePoint" />
            <mxPoint x="1030" y="400" as="targetPoint" />
          </mxGeometry>
        </mxCell>
        <mxCell id="LNF0x5uRXGlsWWgb_Sv3-25" value="" style="rounded=0;whiteSpace=wrap;html=1;" vertex="1" parent="1">
          <mxGeometry x="1040" y="320" width="40" height="160" as="geometry" />
        </mxCell>
        <mxCell id="LNF0x5uRXGlsWWgb_Sv3-26" value="Raw PCL" style="text;html=1;strokeColor=none;fillColor=none;align=center;verticalAlign=middle;whiteSpace=wrap;rounded=0;" vertex="1" parent="1">
          <mxGeometry x="40" y="390" width="40" height="20" as="geometry" />
        </mxCell>
        <mxCell id="LNF0x5uRXGlsWWgb_Sv3-27" value="Crop and keep FOV points" style="text;html=1;strokeColor=none;fillColor=none;align=center;verticalAlign=middle;whiteSpace=wrap;rounded=0;" vertex="1" parent="1">
          <mxGeometry x="150" y="385" width="60" height="30" as="geometry" />
        </mxCell>
        <mxCell id="LNF0x5uRXGlsWWgb_Sv3-28" value="Get predictions from&lt;br style=&quot;font-size: 14px;&quot;&gt;Pointpillars" style="text;html=1;strokeColor=none;fillColor=none;align=center;verticalAlign=middle;whiteSpace=wrap;rounded=0;rotation=-90;fontSize=14;" vertex="1" parent="1">
          <mxGeometry x="255" y="380" width="110" height="40" as="geometry" />
        </mxCell>
        <mxCell id="LNF0x5uRXGlsWWgb_Sv3-29" value="True" style="text;html=1;strokeColor=none;fillColor=none;align=center;verticalAlign=middle;whiteSpace=wrap;rounded=0;fontSize=14;rotation=-90;" vertex="1" parent="1">
          <mxGeometry x="430" y="310" width="40" height="20" as="geometry" />
        </mxCell>
        <mxCell id="LNF0x5uRXGlsWWgb_Sv3-30" value="True" style="text;html=1;strokeColor=none;fillColor=none;align=center;verticalAlign=middle;whiteSpace=wrap;rounded=0;fontSize=14;rotation=-90;" vertex="1" parent="1">
          <mxGeometry x="670" y="310" width="40" height="20" as="geometry" />
        </mxCell>
        <mxCell id="LNF0x5uRXGlsWWgb_Sv3-33" value="points around prediction &amp;gt; &lt;font color=&quot;#3333ff&quot;&gt;700&lt;/font&gt;" style="text;html=1;strokeColor=none;fillColor=none;align=center;verticalAlign=middle;whiteSpace=wrap;rounded=0;fontSize=12;" vertex="1" parent="1">
          <mxGeometry x="406.25" y="387.5" width="107.5" height="25" as="geometry" />
        </mxCell>
        <mxCell id="LNF0x5uRXGlsWWgb_Sv3-34" value="total points from predictions &amp;gt; &lt;font color=&quot;#ff3333&quot;&gt;5500&lt;/font&gt;" style="text;html=1;strokeColor=none;fillColor=none;align=center;verticalAlign=middle;whiteSpace=wrap;rounded=0;fontSize=12;" vertex="1" parent="1">
          <mxGeometry x="653.13" y="380" width="93.75" height="52.5" as="geometry" />
        </mxCell>
        <mxCell id="LNF0x5uRXGlsWWgb_Sv3-35" value="Randomly sample &lt;font color=&quot;#3333ff&quot;&gt;700&lt;/font&gt; of them" style="text;html=1;strokeColor=none;fillColor=none;align=center;verticalAlign=middle;whiteSpace=wrap;rounded=0;fontSize=12;" vertex="1" parent="1">
          <mxGeometry x="500" y="245" width="100" height="20" as="geometry" />
        </mxCell>
        <mxCell id="LNF0x5uRXGlsWWgb_Sv3-36" value="Randomly sample &lt;font color=&quot;#ff0000&quot;&gt;5500&lt;/font&gt; of them" style="text;html=1;strokeColor=none;fillColor=none;align=center;verticalAlign=middle;whiteSpace=wrap;rounded=0;fontSize=12;" vertex="1" parent="1">
          <mxGeometry x="740" y="245" width="100" height="20" as="geometry" />
        </mxCell>
        <mxCell id="LNF0x5uRXGlsWWgb_Sv3-37" value="Randomly sample points &lt;font color=&quot;#00cc00&quot;&gt;2500&lt;/font&gt; points from the remaining enviroment" style="text;html=1;strokeColor=none;fillColor=none;align=center;verticalAlign=middle;whiteSpace=wrap;rounded=0;fontSize=12;" vertex="1" parent="1">
          <mxGeometry x="890" y="387.5" width="120" height="20" as="geometry" />
        </mxCell>
        <mxCell id="LNF0x5uRXGlsWWgb_Sv3-38" value="Training" style="text;html=1;strokeColor=none;fillColor=none;align=center;verticalAlign=middle;whiteSpace=wrap;rounded=0;fontSize=14;rotation=-90;" vertex="1" parent="1">
          <mxGeometry x="1040" y="390" width="40" height="20" as="geometry" />
        </mxCell>
        <mxCell id="LNF0x5uRXGlsWWgb_Sv3-39" style="edgeStyle=orthogonalEdgeStyle;rounded=0;orthogonalLoop=1;jettySize=auto;html=1;exitX=0.5;exitY=1;exitDx=0;exitDy=0;fontSize=14;" edge="1" parent="1" source="LNF0x5uRXGlsWWgb_Sv3-34" target="LNF0x5uRXGlsWWgb_Sv3-34">
          <mxGeometry relative="1" as="geometry" />
        </mxCell>
        <mxCell id="LNF0x5uRXGlsWWgb_Sv3-42" value="" style="shape=curlyBracket;whiteSpace=wrap;html=1;rounded=1;fontSize=14;strokeWidth=3;rotation=-90;" vertex="1" parent="1">
          <mxGeometry x="120" y="420" width="20" height="207.5" as="geometry" />
        </mxCell>
        <mxCell id="LNF0x5uRXGlsWWgb_Sv3-43" value="" style="shape=curlyBracket;whiteSpace=wrap;html=1;rounded=1;fontSize=14;strokeWidth=3;rotation=-90;" vertex="1" parent="1">
          <mxGeometry x="301.25" y="478.75" width="20" height="90" as="geometry" />
        </mxCell>
        <mxCell id="LNF0x5uRXGlsWWgb_Sv3-44" value="" style="shape=curlyBracket;whiteSpace=wrap;html=1;rounded=1;fontSize=14;strokeWidth=3;rotation=-90;" vertex="1" parent="1">
          <mxGeometry x="505.63" y="403.13" width="20" height="241.25" as="geometry" />
        </mxCell>
        <mxCell id="LNF0x5uRXGlsWWgb_Sv3-45" value="" style="shape=curlyBracket;whiteSpace=wrap;html=1;rounded=1;fontSize=14;strokeWidth=3;rotation=-90;" vertex="1" parent="1">
          <mxGeometry x="760" y="403.12" width="20" height="241.25" as="geometry" />
        </mxCell>
        <mxCell id="LNF0x5uRXGlsWWgb_Sv3-46" value="" style="shape=curlyBracket;whiteSpace=wrap;html=1;rounded=1;fontSize=14;strokeWidth=3;rotation=-90;" vertex="1" parent="1">
          <mxGeometry x="957.81" y="455.32" width="20" height="136.87" as="geometry" />
        </mxCell>
        <mxCell id="LNF0x5uRXGlsWWgb_Sv3-48" value="" style="ellipse;whiteSpace=wrap;html=1;aspect=fixed;fontSize=14;strokeWidth=3;" vertex="1" parent="1">
          <mxGeometry x="105" y="542.19" width="50" height="50" as="geometry" />
        </mxCell>
        <mxCell id="LNF0x5uRXGlsWWgb_Sv3-49" value="&lt;b&gt;&lt;font style=&quot;font-size: 23px&quot;&gt;1&lt;/font&gt;&lt;/b&gt;" style="text;html=1;strokeColor=none;fillColor=none;align=center;verticalAlign=middle;whiteSpace=wrap;rounded=0;fontSize=14;" vertex="1" parent="1">
          <mxGeometry x="110" y="557.19" width="40" height="20" as="geometry" />
        </mxCell>
        <mxCell id="LNF0x5uRXGlsWWgb_Sv3-50" value="" style="ellipse;whiteSpace=wrap;html=1;aspect=fixed;fontSize=14;strokeWidth=3;" vertex="1" parent="1">
          <mxGeometry x="286.25" y="542.19" width="50" height="50" as="geometry" />
        </mxCell>
        <mxCell id="LNF0x5uRXGlsWWgb_Sv3-51" value="&lt;b&gt;&lt;font style=&quot;font-size: 23px&quot;&gt;2&lt;/font&gt;&lt;/b&gt;" style="text;html=1;strokeColor=none;fillColor=none;align=center;verticalAlign=middle;whiteSpace=wrap;rounded=0;fontSize=14;" vertex="1" parent="1">
          <mxGeometry x="291.25" y="557.19" width="40" height="20" as="geometry" />
        </mxCell>
        <mxCell id="LNF0x5uRXGlsWWgb_Sv3-52" value="" style="ellipse;whiteSpace=wrap;html=1;aspect=fixed;fontSize=14;strokeWidth=3;" vertex="1" parent="1">
          <mxGeometry x="490.63" y="542.19" width="50" height="50" as="geometry" />
        </mxCell>
        <mxCell id="LNF0x5uRXGlsWWgb_Sv3-53" value="&lt;b&gt;&lt;font style=&quot;font-size: 23px&quot;&gt;3&lt;/font&gt;&lt;/b&gt;" style="text;html=1;strokeColor=none;fillColor=none;align=center;verticalAlign=middle;whiteSpace=wrap;rounded=0;fontSize=14;" vertex="1" parent="1">
          <mxGeometry x="495.63" y="557.19" width="40" height="20" as="geometry" />
        </mxCell>
        <mxCell id="LNF0x5uRXGlsWWgb_Sv3-54" value="" style="ellipse;whiteSpace=wrap;html=1;aspect=fixed;fontSize=14;strokeWidth=3;" vertex="1" parent="1">
          <mxGeometry x="745" y="542.19" width="50" height="50" as="geometry" />
        </mxCell>
        <mxCell id="LNF0x5uRXGlsWWgb_Sv3-55" value="&lt;b&gt;&lt;font style=&quot;font-size: 23px&quot;&gt;4&lt;/font&gt;&lt;/b&gt;" style="text;html=1;strokeColor=none;fillColor=none;align=center;verticalAlign=middle;whiteSpace=wrap;rounded=0;fontSize=14;" vertex="1" parent="1">
          <mxGeometry x="750" y="557.19" width="40" height="20" as="geometry" />
        </mxCell>
        <mxCell id="LNF0x5uRXGlsWWgb_Sv3-56" value="" style="ellipse;whiteSpace=wrap;html=1;aspect=fixed;fontSize=14;strokeWidth=3;" vertex="1" parent="1">
          <mxGeometry x="942.81" y="542.19" width="50" height="50" as="geometry" />
        </mxCell>
        <mxCell id="LNF0x5uRXGlsWWgb_Sv3-57" value="&lt;b&gt;&lt;font style=&quot;font-size: 23px&quot;&gt;5&lt;/font&gt;&lt;/b&gt;" style="text;html=1;strokeColor=none;fillColor=none;align=center;verticalAlign=middle;whiteSpace=wrap;rounded=0;fontSize=14;" vertex="1" parent="1">
          <mxGeometry x="947.81" y="557.19" width="40" height="20" as="geometry" />
        </mxCell>
      </root>
    </mxGraphModel>
  </diagram>
</mxfile>
